<svg width="129" height="89" viewBox="0 0 129 89" fill="none" xmlns="http://www.w3.org/2000/svg">
<path d="M69.9972 26.5102L100.73 55.5774C105.986 60.549 102.468 69.3895 95.2327 69.3895H33.7673C26.5321 69.3895 23.0136 60.549 28.2701 55.5774L59.0028 26.5102C62.0871 23.593 66.9129 23.593 69.9972 26.5102Z" fill="#FE6100" stroke="white" stroke-width="4"/>
<path d="M62.4384 25.3906C62.4697 23.5312 62.6806 22.0625 63.0712 20.9844C63.4619 19.9062 64.2587 18.7109 65.4619 17.3984L68.5322 14.2344C69.8447 12.75 70.5009 11.1562 70.5009 9.45312C70.5009 7.8125 70.0712 6.53125 69.2119 5.60938C68.3525 4.67188 67.1025 4.20312 65.4619 4.20312C63.8681 4.20312 62.5869 4.625 61.6181 5.46875C60.6494 6.3125 60.165 7.44531 60.165 8.86719H55.8291C55.8603 6.33594 56.7587 4.29688 58.5244 2.75C60.3056 1.1875 62.6181 0.40625 65.4619 0.40625C68.415 0.40625 70.7119 1.20312 72.3525 2.79688C74.0087 4.375 74.8369 6.54688 74.8369 9.3125C74.8369 12.0469 73.5712 14.7422 71.04 17.3984L68.4853 19.9297C67.3447 21.1953 66.7744 23.0156 66.7744 25.3906H62.4384ZM62.2509 32.8203C62.2509 32.1172 62.4619 31.5312 62.8837 31.0625C63.3212 30.5781 63.9619 30.3359 64.8056 30.3359C65.6494 30.3359 66.29 30.5781 66.7275 31.0625C67.165 31.5312 67.3837 32.1172 67.3837 32.8203C67.3837 33.5234 67.165 34.1094 66.7275 34.5781C66.29 35.0312 65.6494 35.2578 64.8056 35.2578C63.9619 35.2578 63.3212 35.0312 62.8837 34.5781C62.4619 34.1094 62.2509 33.5234 62.2509 32.8203Z" fill="white"/>
</svg>
