<svg width="30" height="30" viewBox="0 0 30 30" fill="none" xmlns="http://www.w3.org/2000/svg">
<circle cx="15" cy="15" r="15" fill="#C4C4C4"/>
<path d="M13.0898 18.7617C13.0898 17.668 13.2227 16.7969 13.4883 16.1484C13.7539 15.5 14.2383 14.8633 14.9414 14.2383C15.6523 13.6055 16.125 13.0938 16.3594 12.7031C16.5938 12.3047 16.7109 11.8867 16.7109 11.4492C16.7109 10.1289 16.1016 9.46875 14.8828 9.46875C14.3047 9.46875 13.8398 9.64844 13.4883 10.0078C13.1445 10.3594 12.9648 10.8477 12.9492 11.4727H9.55078C9.56641 9.98047 10.0469 8.8125 10.9922 7.96875C11.9453 7.125 13.2422 6.70312 14.8828 6.70312C16.5391 6.70312 17.8242 7.10547 18.7383 7.91016C19.6523 8.70703 20.1094 9.83594 20.1094 11.2969C20.1094 11.9609 19.9609 12.5898 19.6641 13.1836C19.3672 13.7695 18.8477 14.4219 18.1055 15.1406L17.1562 16.043C16.5625 16.6133 16.2227 17.2812 16.1367 18.0469L16.0898 18.7617H13.0898ZM12.75 22.3594C12.75 21.8359 12.9258 21.4062 13.2773 21.0703C13.6367 20.7266 14.0938 20.5547 14.6484 20.5547C15.2031 20.5547 15.6562 20.7266 16.0078 21.0703C16.3672 21.4062 16.5469 21.8359 16.5469 22.3594C16.5469 22.875 16.3711 23.3008 16.0195 23.6367C15.6758 23.9727 15.2188 24.1406 14.6484 24.1406C14.0781 24.1406 13.6172 23.9727 13.2656 23.6367C12.9219 23.3008 12.75 22.875 12.75 22.3594Z" fill="white"/>
</svg>
