<svg width="263" height="76" viewBox="0 0 263 76" fill="none" xmlns="http://www.w3.org/2000/svg">
<path d="M46.6562 35.0469C46.6562 33.7188 46.1875 32.7031 45.25 32C44.3125 31.2812 42.625 30.5312 40.1875 29.75C37.75 28.9531 35.8203 28.1719 34.3984 27.4062C30.5234 25.3125 28.5859 22.4922 28.5859 18.9453C28.5859 17.1016 29.1016 15.4609 30.1328 14.0234C31.1797 12.5703 32.6719 11.4375 34.6094 10.625C36.5625 9.8125 38.75 9.40625 41.1719 9.40625C43.6094 9.40625 45.7812 9.85156 47.6875 10.7422C49.5938 11.6172 51.0703 12.8594 52.1172 14.4688C53.1797 16.0781 53.7109 17.9062 53.7109 19.9531H46.6797C46.6797 18.3906 46.1875 17.1797 45.2031 16.3203C44.2188 15.4453 42.8359 15.0078 41.0547 15.0078C39.3359 15.0078 38 15.375 37.0469 16.1094C36.0938 16.8281 35.6172 17.7812 35.6172 18.9688C35.6172 20.0781 36.1719 21.0078 37.2812 21.7578C38.4062 22.5078 40.0547 23.2109 42.2266 23.8672C46.2266 25.0703 49.1406 26.5625 50.9688 28.3438C52.7969 30.125 53.7109 32.3438 53.7109 35C53.7109 37.9531 52.5938 40.2734 50.3594 41.9609C48.125 43.6328 45.1172 44.4688 41.3359 44.4688C38.7109 44.4688 36.3203 43.9922 34.1641 43.0391C32.0078 42.0703 30.3594 40.75 29.2188 39.0781C28.0938 37.4062 27.5312 35.4688 27.5312 33.2656H34.5859C34.5859 37.0312 36.8359 38.9141 41.3359 38.9141C43.0078 38.9141 44.3125 38.5781 45.25 37.9062C46.1875 37.2188 46.6562 36.2656 46.6562 35.0469ZM69.7188 44.4688C66 44.4688 62.9688 43.3281 60.625 41.0469C58.2969 38.7656 57.1328 35.7266 57.1328 31.9297V31.2734C57.1328 28.7266 57.625 26.4531 58.6094 24.4531C59.5938 22.4375 60.9844 20.8906 62.7812 19.8125C64.5938 18.7188 66.6562 18.1719 68.9688 18.1719C72.4375 18.1719 75.1641 19.2656 77.1484 21.4531C79.1484 23.6406 80.1484 26.7422 80.1484 30.7578V33.5234H64C64.2188 35.1797 64.875 36.5078 65.9688 37.5078C67.0781 38.5078 68.4766 39.0078 70.1641 39.0078C72.7734 39.0078 74.8125 38.0625 76.2812 36.1719L79.6094 39.8984C78.5938 41.3359 77.2188 42.4609 75.4844 43.2734C73.75 44.0703 71.8281 44.4688 69.7188 44.4688ZM68.9453 23.6562C67.6016 23.6562 66.5078 24.1094 65.6641 25.0156C64.8359 25.9219 64.3047 27.2188 64.0703 28.9062H73.4922V28.3672C73.4609 26.8672 73.0547 25.7109 72.2734 24.8984C71.4922 24.0703 70.3828 23.6562 68.9453 23.6562ZM95.6875 44.4688C91.9688 44.4688 88.9375 43.3281 86.5938 41.0469C84.2656 38.7656 83.1016 35.7266 83.1016 31.9297V31.2734C83.1016 28.7266 83.5938 26.4531 84.5781 24.4531C85.5625 22.4375 86.9531 20.8906 88.75 19.8125C90.5625 18.7188 92.625 18.1719 94.9375 18.1719C98.4062 18.1719 101.133 19.2656 103.117 21.4531C105.117 23.6406 106.117 26.7422 106.117 30.7578V33.5234H89.9688C90.1875 35.1797 90.8438 36.5078 91.9375 37.5078C93.0469 38.5078 94.4453 39.0078 96.1328 39.0078C98.7422 39.0078 100.781 38.0625 102.25 36.1719L105.578 39.8984C104.562 41.3359 103.188 42.4609 101.453 43.2734C99.7188 44.0703 97.7969 44.4688 95.6875 44.4688ZM94.9141 23.6562C93.5703 23.6562 92.4766 24.1094 91.6328 25.0156C90.8047 25.9219 90.2734 27.2188 90.0391 28.9062H99.4609V28.3672C99.4297 26.8672 99.0234 25.7109 98.2422 24.8984C97.4609 24.0703 96.3516 23.6562 94.9141 23.6562ZM116.336 18.6406L116.547 21.4766C118.344 19.2734 120.773 18.1719 123.836 18.1719C127.102 18.1719 129.344 19.4609 130.562 22.0391C132.344 19.4609 134.883 18.1719 138.18 18.1719C140.93 18.1719 142.977 18.9766 144.32 20.5859C145.664 22.1797 146.336 24.5859 146.336 27.8047V44H139.539V27.8281C139.539 26.3906 139.258 25.3438 138.695 24.6875C138.133 24.0156 137.141 23.6797 135.719 23.6797C133.688 23.6797 132.281 24.6484 131.5 26.5859L131.523 44H124.75V27.8516C124.75 26.3828 124.461 25.3203 123.883 24.6641C123.305 24.0078 122.32 23.6797 120.93 23.6797C119.008 23.6797 117.617 24.4766 116.758 26.0703V44H109.984V18.6406H116.336ZM158.711 44H151.914V8H158.711V44ZM175.984 44.4688C172.266 44.4688 169.234 43.3281 166.891 41.0469C164.562 38.7656 163.398 35.7266 163.398 31.9297V31.2734C163.398 28.7266 163.891 26.4531 164.875 24.4531C165.859 22.4375 167.25 20.8906 169.047 19.8125C170.859 18.7188 172.922 18.1719 175.234 18.1719C178.703 18.1719 181.43 19.2656 183.414 21.4531C185.414 23.6406 186.414 26.7422 186.414 30.7578V33.5234H170.266C170.484 35.1797 171.141 36.5078 172.234 37.5078C173.344 38.5078 174.742 39.0078 176.43 39.0078C179.039 39.0078 181.078 38.0625 182.547 36.1719L185.875 39.8984C184.859 41.3359 183.484 42.4609 181.75 43.2734C180.016 44.0703 178.094 44.4688 175.984 44.4688ZM175.211 23.6562C173.867 23.6562 172.773 24.1094 171.93 25.0156C171.102 25.9219 170.57 27.2188 170.336 28.9062H179.758V28.3672C179.727 26.8672 179.32 25.7109 178.539 24.8984C177.758 24.0703 176.648 23.6562 175.211 23.6562ZM204.016 36.9922C204.016 36.1641 203.602 35.5156 202.773 35.0469C201.961 34.5625 200.648 34.1328 198.836 33.7578C192.805 32.4922 189.789 29.9297 189.789 26.0703C189.789 23.8203 190.719 21.9453 192.578 20.4453C194.453 18.9297 196.898 18.1719 199.914 18.1719C203.133 18.1719 205.703 18.9297 207.625 20.4453C209.562 21.9609 210.531 23.9297 210.531 26.3516H203.758C203.758 25.3828 203.445 24.5859 202.82 23.9609C202.195 23.3203 201.219 23 199.891 23C198.75 23 197.867 23.2578 197.242 23.7734C196.617 24.2891 196.305 24.9453 196.305 25.7422C196.305 26.4922 196.656 27.1016 197.359 27.5703C198.078 28.0234 199.281 28.4219 200.969 28.7656C202.656 29.0938 204.078 29.4688 205.234 29.8906C208.812 31.2031 210.602 33.4766 210.602 36.7109C210.602 39.0234 209.609 40.8984 207.625 42.3359C205.641 43.7578 203.078 44.4688 199.938 44.4688C197.812 44.4688 195.922 44.0938 194.266 43.3438C192.625 42.5781 191.336 41.5391 190.398 40.2266C189.461 38.8984 188.992 37.4688 188.992 35.9375H195.414C195.477 37.1406 195.922 38.0625 196.75 38.7031C197.578 39.3438 198.688 39.6641 200.078 39.6641C201.375 39.6641 202.352 39.4219 203.008 38.9375C203.68 38.4375 204.016 37.7891 204.016 36.9922ZM228.719 36.9922C228.719 36.1641 228.305 35.5156 227.477 35.0469C226.664 34.5625 225.352 34.1328 223.539 33.7578C217.508 32.4922 214.492 29.9297 214.492 26.0703C214.492 23.8203 215.422 21.9453 217.281 20.4453C219.156 18.9297 221.602 18.1719 224.617 18.1719C227.836 18.1719 230.406 18.9297 232.328 20.4453C234.266 21.9609 235.234 23.9297 235.234 26.3516H228.461C228.461 25.3828 228.148 24.5859 227.523 23.9609C226.898 23.3203 225.922 23 224.594 23C223.453 23 222.57 23.2578 221.945 23.7734C221.32 24.2891 221.008 24.9453 221.008 25.7422C221.008 26.4922 221.359 27.1016 222.062 27.5703C222.781 28.0234 223.984 28.4219 225.672 28.7656C227.359 29.0938 228.781 29.4688 229.938 29.8906C233.516 31.2031 235.305 33.4766 235.305 36.7109C235.305 39.0234 234.312 40.8984 232.328 42.3359C230.344 43.7578 227.781 44.4688 224.641 44.4688C222.516 44.4688 220.625 44.0938 218.969 43.3438C217.328 42.5781 216.039 41.5391 215.102 40.2266C214.164 38.8984 213.695 37.4688 213.695 35.9375H220.117C220.18 37.1406 220.625 38.0625 221.453 38.7031C222.281 39.3438 223.391 39.6641 224.781 39.6641C226.078 39.6641 227.055 39.4219 227.711 38.9375C228.383 38.4375 228.719 37.7891 228.719 36.9922Z" fill="black"/>
<rect x="67" y="6" width="4" height="9" rx="1" fill="black"/>
<rect x="76.0781" y="7" width="4" height="9" rx="1" transform="rotate(20 76.0781 7)" fill="black"/>
<rect x="64.8369" y="15.4572" width="4" height="9" rx="1" transform="rotate(160 64.8369 15.4572)" fill="black"/>
<rect x="93" y="6" width="4" height="9" rx="1" fill="black"/>
<rect x="102.078" y="7" width="4" height="9" rx="1" transform="rotate(20 102.078 7)" fill="black"/>
<rect x="90.8369" y="15.4572" width="4" height="9" rx="1" transform="rotate(160 90.8369 15.4572)" fill="black"/>
</svg>
