<svg width="20" height="24" viewBox="0 0 20 24" fill="none" xmlns="http://www.w3.org/2000/svg">
<rect y="8.51613" width="20" height="15.4839" rx="3" fill="black"/>
<path d="M18.4001 7.74194C18.4001 6.72525 18.1828 5.71852 17.7607 4.77922C17.3385 3.83993 16.7198 2.98647 15.9398 2.26756C15.1598 1.54866 14.2338 0.978388 13.2146 0.58932C12.1955 0.200251 11.1032 -4.44407e-08 10.0001 0C8.89699 4.44407e-08 7.80469 0.200251 6.78556 0.58932C5.76642 0.978389 4.84041 1.54866 4.0604 2.26756C3.28039 2.98647 2.66165 3.83993 2.23951 4.77923C1.81737 5.71852 1.6001 6.72525 1.6001 7.74194L4.28643 7.74194C4.28643 7.05039 4.43422 6.36561 4.72136 5.7267C5.00849 5.0878 5.42936 4.50727 5.95992 4.01827C6.49049 3.52927 7.12036 3.14138 7.81357 2.87674C8.50679 2.61209 9.24977 2.47588 10.0001 2.47588C10.7504 2.47588 11.4934 2.61209 12.1866 2.87674C12.8798 3.14138 13.5097 3.52927 14.0403 4.01827C14.5708 4.50727 14.9917 5.0878 15.2788 5.7267C15.566 6.36561 15.7138 7.05039 15.7138 7.74194H18.4001Z" fill="black"/>
<circle cx="10" cy="14" r="2" fill="white"/>
<path d="M9.04618 15.0288C9.33995 14.096 10.6601 14.096 10.9538 15.0288L12.1886 18.9496C12.3915 19.594 11.9103 20.25 11.2347 20.25H8.76526C8.08969 20.25 7.60851 19.594 7.81144 18.9496L9.04618 15.0288Z" fill="white"/>
</svg>
